<svg xmlns="http://www.w3.org/2000/svg" version="1.1" xmlns:xlink="http://www.w3.org/1999/xlink" xmlns:svgjs="http://svgjs.dev/svgjs" width="2000" height="1247" viewBox="0 0 2000 1247"><g transform="matrix(1,0,0,1,-1.2121212121212466,0.504858299595071)"><svg viewBox="0 0 396 247" data-background-color="#ffffff" preserveAspectRatio="xMidYMid meet" height="1247" width="2000" xmlns="http://www.w3.org/2000/svg" xmlns:xlink="http://www.w3.org/1999/xlink"><g id="tight-bounds" transform="matrix(1,0,0,1,0.2400000000000091,-0.09999999999999432)"><svg viewBox="0 0 395.52 247.2" height="247.2" width="395.52"><g><svg></svg></g><g><svg viewBox="0 0 395.52 247.2" height="247.2" width="395.52"><g transform="matrix(1,0,0,1,126.17653028571428,47.215199999999996)"><svg viewBox="0 0 143.16693942857142 152.7696" height="152.7696" width="143.16693942857142"><g><svg viewBox="0 0 143.16693942857142 152.7696" height="152.7696" width="143.16693942857142"><g><svg viewBox="0 0 143.16693942857142 152.7696" height="152.7696" width="143.16693942857142"><g><svg viewBox="0 0 143.16693942857142 152.7696" height="152.7696" width="143.16693942857142"><g id="textblocktransform"><svg viewBox="0 0 143.16693942857142 152.7696" height="152.7696" width="143.16693942857142" id="textblock"><g><svg viewBox="0 0 143.16693942857142 152.7696" height="152.7696" width="143.16693942857142"><g transform="matrix(1,0,0,1,0,0)"><svg width="143.16693942857142" viewBox="1.15 -35 32.800000000000004 35" height="152.7696" data-palette-color="#804dee"><path d="M7.85 0L1.15 0 13.95-35 21.15-35 33.95 0 27.15 0 24.35-8.1 10.7-8.1 7.85 0ZM17.5-27.65L12.45-13.1 22.6-13.1 17.5-27.65Z" opacity="1" transform="matrix(1,0,0,1,0,0)" fill="#804dee" class="wordmark-text-0" data-fill-palette-color="primary" id="text-0"></path></svg></g></svg></g></svg></g></svg></g></svg></g></svg></g></svg></g><g><path d="M0 123.6c0-68.262 55.338-123.6 123.6-123.6 30.402 0 58.24 10.976 79.768 29.183l-11.147 0c-19.26-14.022-42.974-22.294-68.621-22.295-64.458 0-116.712 52.254-116.712 116.712 0 64.458 52.254 116.712 116.712 116.712 25.647 0 49.361-8.272 68.621-22.295l11.147 0c-21.528 18.206-49.366 29.183-79.768 29.183-68.262 0-123.6-55.338-123.6-123.6z" fill="#804dee" stroke="transparent" data-fill-palette-color="tertiary"></path></g></svg></g><defs></defs></svg><rect width="395.52" height="247.2" fill="none" stroke="none" visibility="hidden"></rect></g></svg></g></svg>